# xmcd
#
# Track frame offsets:
#	150
#	23638
#	34818
#	56818
#	68408
#	78699
#	93567
#	105807
#	126280
#	140549
#	153392
#	173210
#	193375
#	208779
#
# Disc length: 3037 seconds
# Revision: 0
# Processed by: cddbd v1.5.2PL0 Copyright (c) Steve Scherf et al.
# Submitted via: dBpowerAMP V12.0
#
DISCID=c20bdb0e
DTITLE=Mary Flower - Bridges
DYEAR=2009
DGENRE=Blues
TTITLE0=Rhythm of the Road
TTITLE1=There Ain't No Sweet Man That's Worth the Salt of My Tears
TTITLE2=Backwater Blues
TTITLE3=When I Get Home I'm Gonna Be Satisfied
TTITLE4=Columbia River Rag
TTITLE5=The Ghost of the St. Louis Blues
TTITLE6=Slow Lane to Glory
TTITLE7=On Revival Day - There's Going To Be the Devil To Pay
TTITLE8=Portland Town
TTITLE9=Daughter of Contortion
TTITLE10=Big Bill's Blues
TTITLE11=Temptation Rag
TTITLE12=Up a Lazy River
TTITLE13=Blue Waltz
EXTD=
EXTT0=
EXTT1=
EXTT2=
EXTT3=
EXTT4=
EXTT5=
EXTT6=
EXTT7=
EXTT8=
EXTT9=
EXTT10=
EXTT11=
EXTT12=
EXTT13=
PLAYORDER=
